<svg height="512px" style="enable-background:new 0 0 512 512;" version="1.1" viewBox="0 0 512 512" width="512px"
     xml:space="preserve" xmlns="http://www.w3.org/2000/svg"><g id="_x35_52_x2C__Tag_x2C__Sale_x2C__valentine_x2C__Discount_x2C__Offer"><g><path d="M222.51,148.715l-13.58,3.67l-13.59,3.54l-3.6,13.65l-3.67,13.58l9.91,9.91l9.92,9.92l13.64-3.61    l13.59-3.67l3.6-13.52l3.61-13.64l-9.92-9.92L222.51,148.715z M204.041,102.465l71.081-6.75l198.02,198.03L332.18,434.705    l-198.019-198.03l12.21-128.74L204.041,102.465z M424.881,306.846l12.811-12.82l-12.811-12.81l-12.82,12.81L424.881,306.846z     M335.18,396.546l12.811-12.82l-12.811-12.811l-12.818,12.811L335.18,396.546z M338.371,297.235    c-0.141-32.16,6.689-57.391-9.461-73.55c-8.92-8.92-23.33-8.98-32.189-0.12c-8.01,8-7.971,16.05-3.9,28.13    c-12.08-4.08-20.119-4.11-28.129,3.89c-8.841,8.841-8.781,23.25,0.139,32.171C280.99,303.915,306.201,297.096,338.371,297.235z     M301.5,183.465l12.82-12.81l-12.82-12.82l-12.809,12.82L301.5,183.465z M211.8,273.165l12.82-12.81l-12.82-12.82l-12.81,12.82    L211.8,273.165z" style="fill:#FFD15C;"/><path
  d="M328.91,223.685c16.15,16.16,9.32,41.39,9.461,73.55c-32.17-0.14-57.381,6.68-73.541-9.479    c-8.919-8.921-8.979-23.33-0.139-32.171c8.01-8,16.049-7.97,28.129-3.89c-4.07-12.08-4.109-20.13,3.9-28.13    C305.58,214.705,319.99,214.765,328.91,223.685z"
  style="fill:#EF3E5C;"/><g><g><g><path d="M328.91,223.685c-8.92-8.92-23.33-8.98-32.189-0.12c-3.002,2.998-4.873,6.003-5.824,9.224       c8.9-8.217,22.813-7.972,31.514,0.73c14.475,14.483,10.492,36.258,9.611,63.774c2.086-0.044,4.201-0.067,6.35-0.058       C338.23,265.075,345.061,239.845,328.91,223.685z" style="fill:#E42A53;"/></g></g></g><g><polygon points="146.371,123.941 204.041,118.471 275.121,111.721 465.137,301.748 473.141,293.745      275.121,95.715 204.041,102.465 146.371,107.935 134.161,236.675 135.547,238.062    " style="fill:#EAB849;"/></g><polygon
  points="437.691,294.025 424.881,306.846 412.061,294.025 424.881,281.216   " style="fill:#DBA437;"/><polygon
  points="347.99,383.726 335.18,396.546 322.361,383.726 335.18,370.915   " style="fill:#DBA437;"/><polygon
  points="314.32,170.655 301.5,183.465 288.691,170.655 301.5,157.835   " style="fill:#DBA437;"/><polygon
  points="224.621,260.355 211.8,273.165 198.991,260.355 211.8,247.535   " style="fill:#DBA437;"/><path
  d="M43.855,228.266c-2.349,0-4.443-1.663-4.904-4.054c-0.523-2.711,1.251-5.333,3.962-5.856    c28.855-5.568,61.501-16.881,63.927-25.448c0.128-0.451,0.516-1.824-2.29-4.398c-25.189-23.121-15.064-64.366,9.276-90.885    c23.439-25.523,63.254-27.248,88.755-3.843c1.896,1.733,3.671,3.567,5.268,5.444c12.146,14.113,17.322,32.885,14.182,51.482    c-0.459,2.723-3.037,4.561-5.763,4.098c-2.723-0.46-4.558-3.04-4.098-5.763c2.644-15.655-1.701-31.443-11.919-43.316    c-1.346-1.582-2.828-3.112-4.424-4.571c-21.446-19.686-54.925-18.232-74.634,3.231c-10.595,11.543-18.047,26.159-20.446,40.1    c-1.828,10.621-1.478,25.601,10.564,36.655c6.071,5.57,6.152,10.955,5.15,14.491c-1.596,5.635-7.375,14.277-38.995,24.223    c-16.435,5.169-32.005,8.193-32.66,8.32C44.487,228.236,44.168,228.266,43.855,228.266z"
  style="fill:#DBA437;"/><path
  d="M463.32,247.765c-1.279,0-2.559-0.488-3.535-1.464l-140.959-140.95    c-1.953-1.953-1.953-5.118-0.002-7.071c1.953-1.952,5.119-1.952,7.072,0l140.959,140.95c1.953,1.953,1.953,5.118,0.002,7.071    C465.881,247.277,464.6,247.765,463.32,247.765z"
  style="fill:#FFD15C;"/><path
  d="M207.901,207.985c-1.31,0-2.586-0.515-3.536-1.464l-19.83-19.83    c-1.266-1.266-1.758-3.112-1.291-4.84l3.67-13.58l3.591-13.62c0.461-1.746,1.827-3.108,3.575-3.563l13.59-3.54l13.535-3.658    c1.729-0.469,3.575,0.025,4.84,1.291l19.83,19.83c1.259,1.259,1.753,3.093,1.298,4.815l-7.212,27.167    c-0.459,1.726-1.804,3.075-3.528,3.541l-13.59,3.67l-13.665,3.616C208.757,207.93,208.327,207.985,207.901,207.985z     M193.652,181.666l15.75,15.75l10.859-2.874l10.78-2.911l5.73-21.584l-15.75-15.75l-10.786,2.915l-10.806,2.815l-2.854,10.823    L193.652,181.666z"
  style="fill:#DBA437;"/></g></g>
  <g id="Layer_1"/></svg>
